<svg width="59" height="59" viewBox="0 0 59 59" fill="none" xmlns="http://www.w3.org/2000/svg">
<path d="M27.6561 46.7087C27.6561 45.6904 28.4816 44.8649 29.4998 44.8649H44.2498C44.5893 44.8649 44.8644 44.5898 44.8644 44.2503V14.7503C44.8644 14.4109 44.5893 14.1357 44.2498 14.1357L29.4998 14.1357C28.4816 14.1357 27.6561 13.3103 27.6561 12.292C27.6561 11.2737 28.4816 10.4482 29.4998 10.4482H44.2498C46.6258 10.4482 48.5519 12.3744 48.5519 14.7503V44.2503C48.5519 46.6263 46.6258 48.5524 44.2498 48.5524H29.4998C28.4816 48.5524 27.6561 47.7269 27.6561 46.7087Z" fill="#395497"/>
<path d="M8.604 32.2419C8.604 33.5996 9.70464 34.7002 11.0623 34.7002H23C23.0563 35.574 23.1269 36.4471 23.2117 37.3191L23.2846 38.0694C23.4032 39.2893 24.6986 40.0199 25.8039 39.4902C30.2975 37.3366 34.3655 34.3896 37.8123 30.791L37.8859 30.7141C38.5425 30.0285 38.5425 28.9473 37.8859 28.2618L37.8123 28.1849C34.3655 24.5862 30.2975 21.6392 25.8039 19.4857C24.6986 18.956 23.4032 19.6866 23.2846 20.9065L23.2117 21.6568C23.1269 22.5288 23.0563 23.4019 23 24.2756L11.0623 24.2756C9.70464 24.2756 8.604 25.3763 8.604 26.734V32.2419Z" fill="#395497"/>
</svg>
