<svg width="255" height="237" viewBox="0 0 255 237" fill="none" xmlns="http://www.w3.org/2000/svg">
<path fill-rule="evenodd" clip-rule="evenodd" d="M98.1915 15.3276C112.16 -5.10924 142.307 -5.10916 156.275 15.3276L161.8 23.4113C196.415 74.0562 226.155 127.866 250.622 184.119L251.776 186.773C260.398 206.597 247.372 229.106 225.887 231.508C160.322 238.836 94.1444 238.836 28.579 231.508C7.09484 229.106 -5.93173 206.597 2.69056 186.773L3.84455 184.119C28.3116 127.866 58.0517 74.0562 92.6665 23.4112L98.1915 15.3276ZM140.025 79.3802C140.025 86.4448 134.298 92.1718 127.234 92.1718C120.169 92.1718 114.442 86.4448 114.442 79.3802C114.442 72.3155 120.169 66.5885 127.234 66.5885C134.298 66.5885 140.025 72.3155 140.025 79.3802ZM127.234 114.557C132.532 114.557 136.827 118.853 136.827 124.151V188.109C136.827 193.408 132.532 197.703 127.234 197.703C121.935 197.703 117.64 193.408 117.64 188.109V124.151C117.64 118.853 121.935 114.557 127.234 114.557Z" fill="#E62E24"/>
</svg>
