<svg width="68" height="68" viewBox="0 0 68 68" fill="none" xmlns="http://www.w3.org/2000/svg">
<path d="M27.625 36.8333C27.625 33.3125 30.4792 30.4583 34 30.4583C37.5208 30.4583 40.375 33.3125 40.375 36.8333C40.375 40.3541 37.5208 43.2083 34 43.2083C30.4792 43.2083 27.625 40.3541 27.625 36.8333Z" fill="white"/>
<path fill-rule="evenodd" clip-rule="evenodd" d="M21.1754 21.6536C21.1754 16.7363 25.1617 12.75 30.079 12.75H37.9209C42.8382 12.75 46.8245 16.7363 46.8245 21.6536C46.8245 21.6957 46.8568 21.7307 46.8987 21.7341L53.2159 22.2471C56.0456 22.4769 58.3728 24.5694 58.901 27.3589C60.2488 34.4771 60.3493 41.7754 59.198 48.928L58.9224 50.6399C58.403 53.8668 55.7472 56.3218 52.4894 56.5864L46.9862 57.0333C38.3429 57.7353 29.657 57.7353 21.0137 57.0333L15.5104 56.5864C12.2527 56.3218 9.59683 53.8668 9.07744 50.6399L8.80189 48.928C7.65062 41.7754 7.75112 34.4771 9.0989 27.3589C9.62706 24.5694 11.9543 22.4769 14.784 22.2471L21.1012 21.7341C21.1431 21.7307 21.1754 21.6957 21.1754 21.6536ZM34 26.2083C28.132 26.2083 23.375 30.9653 23.375 36.8333C23.375 42.7014 28.132 47.4583 34 47.4583C39.868 47.4583 44.625 42.7014 44.625 36.8333C44.625 30.9653 39.868 26.2083 34 26.2083Z" fill="white"/>
</svg>
