<svg width="52" height="52" viewBox="0 0 52 52" fill="none" xmlns="http://www.w3.org/2000/svg">
<path d="M15.853 8.16525C22.5427 7.41757 29.4574 7.41757 36.1471 8.16525C38.6587 8.44596 40.8636 9.80419 42.2583 11.7767L24.9168 29.1182L19.5658 23.7672C18.9312 23.1326 17.9023 23.1326 17.2677 23.7672C16.6331 24.4018 16.6331 25.4307 17.2677 26.0653L23.7677 32.5653C24.4023 33.1999 25.4312 33.1999 26.0658 32.5653L43.6493 14.9819C43.698 15.2193 43.7368 15.4603 43.7654 15.7047C44.5654 22.5447 44.5654 29.4546 43.7654 36.2946C43.2999 40.2747 40.1043 43.3917 36.1471 43.834C29.4574 44.5817 22.5427 44.5817 15.853 43.834C11.8959 43.3917 8.70027 40.2747 8.23477 36.2946C7.43477 29.4546 7.43477 22.5447 8.23477 15.7047C8.70027 11.7246 11.8959 8.60752 15.853 8.16525Z" fill="black"/>
</svg>
