<svg width="99" height="99" viewBox="0 0 99 99" fill="none" xmlns="http://www.w3.org/2000/svg">
<path d="M49.5 12.375C42.1574 12.375 34.9796 14.5523 28.8745 18.6317C22.7693 22.711 18.0109 28.5092 15.201 35.2929C12.3911 42.0766 11.6559 49.5412 13.0884 56.7427C14.5208 63.9443 18.0567 70.5593 23.2487 75.7513C28.4407 80.9434 35.0557 84.4792 42.2573 85.9117C49.4588 87.3441 56.9234 86.6089 63.7071 83.799C70.4908 80.9891 76.289 76.2307 80.3683 70.1256C84.4477 64.0204 86.625 56.8426 86.625 49.5C86.625 39.6538 82.7136 30.2109 75.7514 23.2487C68.7891 16.2864 59.3462 12.375 49.5 12.375ZM65.34 52.5938H38.5791L46.4063 60.4519C46.8302 60.8843 47.118 61.4316 47.2338 62.026C47.3496 62.6204 47.2885 63.2358 47.0579 63.7957C46.8273 64.3557 46.4375 64.8357 45.9367 65.1762C45.4359 65.5167 44.8462 65.7027 44.2406 65.7113C43.8335 65.7136 43.4299 65.6356 43.0529 65.4816C42.676 65.3277 42.3332 65.1008 42.0441 64.8141L33.2888 56.0588C31.5507 54.3185 30.5744 51.9595 30.5744 49.5C30.5744 47.0405 31.5507 44.6815 33.2888 42.9413L42.0441 34.1859C42.6359 33.6791 43.3972 33.4143 44.1758 33.4443C44.9545 33.4744 45.6931 33.7972 46.244 34.3482C46.795 34.8991 47.1178 35.6377 47.1479 36.4164C47.178 37.195 46.9131 37.9563 46.4063 38.5481L38.5791 46.4063H65.34C66.1605 46.4063 66.9474 46.7322 67.5276 47.3124C68.1078 47.8926 68.4338 48.6795 68.4338 49.5C68.4338 50.3205 68.1078 51.1074 67.5276 51.6876C66.9474 52.2678 66.1605 52.5938 65.34 52.5938Z" fill="white"/>
</svg>
