<svg width="54" height="54" viewBox="0 0 54 54" fill="none" xmlns="http://www.w3.org/2000/svg">
<path d="M27 0C21.6599 0 16.4397 1.58352 11.9996 4.55032C7.55949 7.51712 4.09883 11.7339 2.05526 16.6675C0.0116987 21.6012 -0.522991 27.03 0.51881 32.2674C1.56061 37.5049 4.13211 42.3159 7.90813 46.0919C11.6841 49.8679 16.4951 52.4394 21.7326 53.4812C26.9701 54.523 32.3989 53.9883 37.3325 51.9447C42.2661 49.9012 46.4829 46.4405 49.4497 42.0004C52.4165 37.5603 54 32.3401 54 27C54 19.8392 51.1554 12.9716 46.0919 7.90812C41.0284 2.84463 34.1609 0 27 0V0ZM38.52 29.25H19.0575L24.75 34.965C25.0584 35.2795 25.2676 35.6776 25.3519 36.1098C25.4361 36.5421 25.3916 36.9897 25.2239 37.3969C25.0562 37.8042 24.7727 38.1532 24.4085 38.4009C24.0443 38.6485 23.6154 38.7838 23.175 38.79C22.8789 38.7917 22.5854 38.735 22.3112 38.623C22.0371 38.511 21.7878 38.346 21.5775 38.1375L15.21 31.77C13.946 30.5044 13.236 28.7888 13.236 27C13.236 25.2112 13.946 23.4956 15.21 22.23L21.5775 15.8625C22.0079 15.4939 22.5616 15.3013 23.1279 15.3231C23.6942 15.345 24.2313 15.5798 24.632 15.9805C25.0327 16.3812 25.2675 16.9184 25.2894 17.4846C25.3112 18.0509 25.1186 18.6046 24.75 19.035L19.0575 24.75H38.52C39.1168 24.75 39.689 24.9871 40.111 25.409C40.533 25.831 40.77 26.4033 40.77 27C40.77 27.5967 40.533 28.169 40.111 28.591C39.689 29.0129 39.1168 29.25 38.52 29.25Z" fill="#395497"/>
</svg>
