<svg width="46" height="46" viewBox="0 0 46 46" fill="none" xmlns="http://www.w3.org/2000/svg">
<path fill-rule="evenodd" clip-rule="evenodd" d="M15.8125 9.58333C15.8125 6.67233 18.1723 4.3125 21.0833 4.3125H24.9167C27.8277 4.3125 30.1875 6.67233 30.1875 9.58333V13.4167C30.1875 14.2106 29.5439 14.8542 28.75 14.8542H17.25C16.4561 14.8542 15.8125 14.2106 15.8125 13.4167V9.58333ZM21.0833 7.1875C19.7602 7.1875 18.6875 8.26015 18.6875 9.58333V11.9792H27.3125V9.58333C27.3125 8.26015 26.2398 7.1875 24.9167 7.1875H21.0833Z" fill="white"/>
<path fill-rule="evenodd" clip-rule="evenodd" d="M12.4333 9.44681C12.6756 9.33064 12.9446 9.51554 12.9441 9.78425L12.9375 13.4167C12.9375 15.7984 14.8683 17.7292 17.25 17.7292H28.75C31.1317 17.7292 33.0625 15.7984 33.0625 13.4167V9.78316C33.0625 9.51475 33.3313 9.33034 33.5734 9.44638C35.8448 10.5353 37.375 12.8547 37.375 15.4971V35.6019C37.375 38.8808 34.9326 41.6463 31.6787 42.0516C25.9152 42.7694 20.0848 42.7694 14.3213 42.0516C11.0674 41.6463 8.625 38.8808 8.625 35.6018V15.4971C8.625 12.855 10.1614 10.5359 12.4333 9.44681ZM28.75 23C29.5439 23 30.1875 23.6436 30.1875 24.4375C30.1875 25.2314 29.5439 25.875 28.75 25.875H17.25C16.4561 25.875 15.8125 25.2314 15.8125 24.4375C15.8125 23.6436 16.4561 23 17.25 23H28.75ZM26.8333 28.75C27.6272 28.75 28.2708 29.3936 28.2708 30.1875C28.2708 30.9814 27.6272 31.625 26.8333 31.625H17.25C16.4561 31.625 15.8125 30.9814 15.8125 30.1875C15.8125 29.3936 16.4561 28.75 17.25 28.75H26.8333Z" fill="white"/>
</svg>
