<svg width="19" height="13" viewBox="0 0 19 13" fill="none" xmlns="http://www.w3.org/2000/svg">
<path d="M9.5 4.25C8.25736 4.25 7.25 5.25736 7.25 6.5C7.25 7.74264 8.25736 8.75 9.5 8.75C10.7426 8.75 11.75 7.74264 11.75 6.5C11.75 5.25736 10.7426 4.25 9.5 4.25Z" fill="black"/>
<path fill-rule="evenodd" clip-rule="evenodd" d="M9.5 0C6.88223 0 4.52801 1.05139 2.83162 2.35335C1.98232 3.00519 1.28544 3.72913 0.79649 4.43368C0.316861 5.12481 0 5.85153 0 6.5C0 7.14847 0.316861 7.87519 0.79649 8.56632C1.28544 9.27087 1.98232 9.99481 2.83162 10.6466C4.52801 11.9486 6.88223 13 9.5 13C12.1178 13 14.472 11.9486 16.1684 10.6466C17.0177 9.99481 17.7146 9.27087 18.2035 8.56632C18.6831 7.87519 19 7.14847 19 6.5C19 5.85153 18.6831 5.12481 18.2035 4.43368C17.7146 3.72913 17.0177 3.00519 16.1684 2.35335C14.472 1.05139 12.1178 0 9.5 0ZM5.75 6.5C5.75 4.42893 7.42893 2.75 9.5 2.75C11.5711 2.75 13.25 4.42893 13.25 6.5C13.25 8.57107 11.5711 10.25 9.5 10.25C7.42893 10.25 5.75 8.57107 5.75 6.5Z" fill="black"/>
</svg>
