<svg width="55" height="38" viewBox="0 0 55 38" fill="none" xmlns="http://www.w3.org/2000/svg">
<path fill-rule="evenodd" clip-rule="evenodd" d="M48.8814 13.3438C48.8194 12.8834 48.7518 12.4237 48.6785 11.9646L48.5156 10.9443C47.9431 7.35712 44.8489 4.71764 41.2163 4.71764L20.5857 4.71764C19.8206 1.99562 17.3201 0 14.3535 0H8.52912C4.76026 0 1.58575 2.81612 1.13639 6.55809L0.443825 12.3254C-0.299988 18.5195 -0.108022 24.7903 1.01329 30.9273C1.61316 34.2105 4.35902 36.6715 7.68807 36.9097L11.5362 37.185C20.3449 37.8152 29.1874 37.8152 37.9961 37.185L42.159 36.8872C44.2141 36.7401 46.0338 35.6961 47.206 34.1245C48.7657 32.6283 49.9931 30.8009 50.7873 28.7589L53.9629 20.5929C55.3193 17.105 52.7464 13.3438 49.004 13.3438H48.8814ZM8.52912 3.8125C6.69004 3.8125 5.14097 5.18668 4.9217 7.01265L4.22913 12.78C3.53089 18.5945 3.7111 24.4811 4.7637 30.242C5.05097 31.8143 6.36591 32.9928 7.96013 33.1069L8.17873 33.1225L14.1061 17.8101C15.1481 15.1182 17.7378 13.3438 20.6244 13.3438H45.032C44.9945 13.0841 44.955 12.8247 44.9137 12.5655L44.7508 11.5452C44.4736 9.80823 42.9753 8.53014 41.2163 8.53014L19.0712 8.53014C17.935 8.53014 17.014 7.60913 17.014 6.47303C17.014 5.00366 15.8229 3.8125 14.3535 3.8125H8.52912Z" fill="black"/>
</svg>
