<svg width="65" height="65" viewBox="0 0 65 65" fill="none" xmlns="http://www.w3.org/2000/svg">
<path fill-rule="evenodd" clip-rule="evenodd" d="M0 32.0833C0 14.3642 14.3642 0 32.0833 0C49.8025 0 64.1667 14.3642 64.1667 32.0833C64.1667 49.8025 49.8025 64.1667 32.0833 64.1667C14.3642 64.1667 0 49.8025 0 32.0833ZM35.75 17.4167C35.75 19.4417 34.1084 21.0833 32.0833 21.0833C30.0583 21.0833 28.4167 19.4417 28.4167 17.4167C28.4167 15.3916 30.0583 13.75 32.0833 13.75C34.1084 13.75 35.75 15.3916 35.75 17.4167ZM32.0833 27.5C33.6021 27.5 34.8333 28.7312 34.8333 30.25V48.5833C34.8333 50.1021 33.6021 51.3333 32.0833 51.3333C30.5646 51.3333 29.3333 50.1021 29.3333 48.5833V30.25C29.3333 28.7312 30.5646 27.5 32.0833 27.5Z" fill="#7E9BE4"/>
</svg>
