<svg width="43" height="43" viewBox="0 0 43 43" fill="none" xmlns="http://www.w3.org/2000/svg">
<path fill-rule="evenodd" clip-rule="evenodd" d="M13.1094 6.75276C18.6412 6.1345 24.3591 6.1345 29.891 6.75276C33.1633 7.11849 35.8058 9.69605 36.1907 12.9873C36.8523 18.6434 36.8523 24.3574 36.1907 30.0136C35.8058 33.3048 33.1633 35.8823 29.891 36.2481C24.3591 36.8663 18.6412 36.8663 13.1094 36.2481C9.83709 35.8823 7.19457 33.3048 6.80963 30.0136C6.14809 24.3574 6.14809 18.6434 6.80963 12.9873C7.19457 9.69605 9.8371 7.11849 13.1094 6.75276ZM23.2919 14.3337C23.2919 15.3233 22.4897 16.1254 21.5002 16.1254C20.5107 16.1254 19.7085 15.3233 19.7085 14.3337C19.7085 13.3442 20.5107 12.5421 21.5002 12.5421C22.4897 12.5421 23.2919 13.3442 23.2919 14.3337ZM21.5002 19.2608C22.2423 19.2608 22.844 19.8624 22.844 20.6046V29.5629C22.844 30.305 22.2423 30.9067 21.5002 30.9067C20.7581 30.9067 20.1565 30.305 20.1565 29.5629V20.6046C20.1565 19.8624 20.7581 19.2608 21.5002 19.2608Z" fill="#FF0000"/>
</svg>
