<svg width="87" height="87" viewBox="0 0 87 87" fill="none" xmlns="http://www.w3.org/2000/svg">
<path fill-rule="evenodd" clip-rule="evenodd" d="M4.53125 43.5C4.53125 31.9883 13.8633 22.6562 25.375 22.6562C33.2796 22.6562 40.1514 27.056 43.6842 33.5312H76.125C79.6286 33.5312 82.4688 36.3714 82.4688 39.875V48.9375C82.4688 50.439 81.2515 51.6562 79.75 51.6562H71.5938V58C71.5938 59.5015 70.3765 60.7188 68.875 60.7188H59.8125C58.311 60.7188 57.0938 59.5015 57.0938 58V51.6562H44.5617C41.388 59.1123 33.9955 64.3438 25.375 64.3438C13.8633 64.3438 4.53125 55.0117 4.53125 43.5ZM25.375 36.25C21.3709 36.25 18.125 39.4959 18.125 43.5C18.125 47.5041 21.3709 50.75 25.375 50.75C29.3791 50.75 32.625 47.5041 32.625 43.5C32.625 39.4959 29.3791 36.25 25.375 36.25Z" fill="white"/>
</svg>
