<svg width="59" height="59" viewBox="0 0 59 59" fill="none" xmlns="http://www.w3.org/2000/svg">
<path fill-rule="evenodd" clip-rule="evenodd" d="M9.8335 19.667C9.8335 13.5573 14.7863 8.60449 20.896 8.60449H45.4793C47.5159 8.60449 49.1668 10.2554 49.1668 12.292V49.167C49.1668 50.5247 48.0662 51.6253 46.7085 51.6253H18.4377C14.103 51.6253 10.5171 48.42 9.92063 44.2503H9.8335V19.667ZM45.4793 38.1045H18.4377C15.7223 38.1045 13.521 40.3058 13.521 43.0212C13.521 45.7366 15.7223 47.9378 18.4377 47.9378H45.4793V38.1045ZM20.2814 19.667C20.2814 18.6487 21.1069 17.8232 22.1252 17.8232H39.3335C40.3518 17.8232 41.1772 18.6487 41.1772 19.667C41.1772 20.6853 40.3518 21.5107 39.3335 21.5107H22.1252C21.1069 21.5107 20.2814 20.6853 20.2814 19.667ZM22.1252 25.1982C21.1069 25.1982 20.2814 26.0237 20.2814 27.042C20.2814 28.0603 21.1069 28.8857 22.1252 28.8857H34.4168C35.4351 28.8857 36.2606 28.0603 36.2606 27.042C36.2606 26.0237 35.4351 25.1982 34.4168 25.1982H22.1252Z" fill="white"/>
</svg>
