<svg width="60" height="62" viewBox="0 0 60 62" fill="none" xmlns="http://www.w3.org/2000/svg">
<path d="M40.6945 0C41.1697 0 41.6254 0.188764 41.9614 0.524767L52.0966 10.66C52.7963 11.3597 52.7963 12.4941 52.0966 13.1938L19.1572 46.1332C18.9321 46.3582 18.6511 46.5193 18.3431 46.5998L4.62455 50.1831C4.00913 50.3438 3.35462 50.1663 2.90485 49.7165C2.45509 49.2667 2.2775 48.6122 2.43825 47.9968L6.02158 34.2783C6.10203 33.9703 6.26309 33.6893 6.48819 33.4642L39.4276 0.524767C39.7636 0.188764 40.2193 0 40.6945 0Z" fill="#7E9BE4"/>
<path d="M2.6875 56.4375C1.20323 56.4375 0 57.6407 0 59.125C0 60.6093 1.20323 61.8125 2.6875 61.8125H56.4375C57.9218 61.8125 59.125 60.6093 59.125 59.125C59.125 57.6407 57.9218 56.4375 56.4375 56.4375H2.6875Z" fill="#7E9BE4"/>
</svg>
