<svg width="34" height="34" viewBox="0 0 34 34" fill="none" xmlns="http://www.w3.org/2000/svg">
<path d="M15.6771 0.354594C15.6771 0.145695 15.4981 -0.0191747 15.2903 0.00181287C6.70275 0.868965 0 8.1196 0 16.9358C0 26.3361 7.62049 33.9566 17.0208 33.9566C21.7449 33.9566 26.0199 32.0312 29.1028 28.9247C29.25 28.7763 29.2338 28.5339 29.0712 28.4025L16.1762 17.9809C15.8605 17.7257 15.6771 17.3416 15.6771 16.9358V0.354594Z" fill="white"/>
<path d="M30.7619 26.3134C30.9244 26.4448 31.1647 26.41 31.279 26.2351C32.7285 24.0168 33.6747 21.439 33.9548 18.6655C33.9758 18.4576 33.8108 18.2795 33.6019 18.2795H21.8347C21.4969 18.2795 21.3467 18.7042 21.6095 18.9165L30.7619 26.3134Z" fill="white"/>
<path d="M33.602 15.592C33.8109 15.592 33.9758 15.4131 33.9548 15.2053C33.1451 7.18673 26.7699 0.811458 18.7513 0.0018036C18.5435 -0.0191828 18.3646 0.145696 18.3646 0.354595V15.0545C18.3646 15.3514 18.6052 15.592 18.9021 15.592H33.602Z" fill="white"/>
</svg>
