<svg width="63" height="63" viewBox="0 0 63 63" fill="none" xmlns="http://www.w3.org/2000/svg">
<path d="M19.0308 19.9499C19.0308 22.487 21.0875 24.5437 23.6246 24.5437H39.3746C41.9116 24.5437 43.9683 22.487 43.9683 19.9499V11.2252C43.9683 10.8247 44.293 10.5 44.6935 10.5C45.0765 10.5 45.4404 10.6673 45.6898 10.958L53.4668 20.0253C54.5446 21.2819 55.1076 22.8996 55.043 24.5539L54.1462 47.5062C54.0086 51.0282 51.1134 53.8125 47.5887 53.8125H46.5933C45.8684 53.8125 45.2808 53.2249 45.2808 52.5V39.375C45.2808 36.8379 43.2241 34.7812 40.6871 34.7812H22.3121C19.775 34.7812 17.7183 36.8379 17.7183 39.375V52.5C17.7183 53.2249 17.1307 53.8125 16.4058 53.8125H16.0459C12.8859 53.8125 10.2181 51.4644 9.81677 48.33C8.52025 38.2026 8.4644 27.9549 9.65046 17.8141L9.81028 16.4476C10.2069 13.0566 13.08 10.5 16.494 10.5H17.7183C18.4432 10.5 19.0308 11.0876 19.0308 11.8125V19.9499Z" fill="white"/>
<path d="M21.6558 52.5C21.6558 53.2249 22.2434 53.8125 22.9683 53.8125H40.0308C40.7557 53.8125 41.3433 53.2249 41.3433 52.5V39.375C41.3433 39.0126 41.0495 38.7188 40.6871 38.7188H22.3121C21.9496 38.7188 21.6558 39.0126 21.6558 39.375V52.5Z" fill="white"/>
<path d="M40.0308 11.8125C40.0308 11.0876 39.4432 10.5 38.7183 10.5H24.2808C23.5559 10.5 22.9683 11.0876 22.9683 11.8125V19.9499C22.9683 20.3124 23.2621 20.6062 23.6246 20.6062H39.3746C39.737 20.6062 40.0308 20.3124 40.0308 19.9499V11.8125Z" fill="white"/>
</svg>
