<svg width="52" height="52" viewBox="0 0 52 52" fill="none" xmlns="http://www.w3.org/2000/svg">
<path fill-rule="evenodd" clip-rule="evenodd" d="M31.1679 33.4654C25.4256 38.0645 17.0202 37.7026 11.6971 32.3795C5.98572 26.6681 5.98572 17.4081 11.6971 11.6966C17.4086 5.98523 26.6686 5.98523 32.38 11.6966C37.703 17.0197 38.065 25.4251 33.466 31.1673L44.6365 42.3379C45.2711 42.9725 45.2711 44.0014 44.6365 44.636C44.0019 45.2706 42.973 45.2706 42.3384 44.636L31.1679 33.4654ZM13.9952 30.0814C9.55302 25.6392 9.55302 18.437 13.9952 13.9947C18.4374 9.55253 25.6397 9.55253 30.0819 13.9947C34.5209 18.4337 34.5241 25.6286 30.0917 30.0716C30.0884 30.0749 30.0851 30.0781 30.0819 30.0814C30.0786 30.0846 30.0754 30.0879 30.0721 30.0912C25.6291 34.5236 18.4342 34.5204 13.9952 30.0814Z" fill="white" stroke="white" stroke-width="2" stroke-linecap="round"/>
</svg>
