<svg width="40" height="40" viewBox="0 0 40 40" fill="none" xmlns="http://www.w3.org/2000/svg">
<path fill-rule="evenodd" clip-rule="evenodd" d="M24.7543 27.0524C19.012 31.6514 10.6066 31.2895 5.28356 25.9664C-0.427854 20.255 -0.427854 10.995 5.28356 5.28356C10.995 -0.427855 20.255 -0.427854 25.9664 5.28356C31.2895 10.6066 31.6514 19.012 27.0524 24.7543L38.2229 35.9248C38.8575 36.5594 38.8575 37.5883 38.2229 38.2229C37.5883 38.8575 36.5594 38.8575 35.9248 38.2229L24.7543 27.0524ZM7.58166 23.6683C3.13945 19.2261 3.13945 12.0239 7.58166 7.58166C12.0239 3.13945 19.2261 3.13945 23.6683 7.58166C28.1073 12.0206 28.1106 19.2156 23.6781 23.6586C23.6748 23.6618 23.6716 23.665 23.6683 23.6683C23.665 23.6715 23.6618 23.6748 23.6586 23.6781C19.2156 28.1105 12.0206 28.1073 7.58166 23.6683Z" fill="white" stroke="white" stroke-width="2" stroke-linecap="round"/>
</svg>
