<svg width="62" height="62" viewBox="0 0 62 62" fill="none" xmlns="http://www.w3.org/2000/svg">
<path d="M39.2346 41.5497C39.4482 41.8375 39.3445 42.2613 39.0196 42.4125C36.3816 43.6395 34.2808 45.8273 33.1668 48.5261C33.0016 48.9262 32.6254 49.2075 32.1926 49.2162C26.4958 49.3316 20.795 49.1859 15.1082 48.779L11.197 48.4992C8.695 48.3202 6.63132 46.4706 6.18047 44.003C5.0757 37.9565 4.88656 31.7782 5.61941 25.6755L6.32333 19.8136C6.66312 16.984 9.06363 14.8545 11.9136 14.8545H17.8334C20.397 14.8545 22.4751 16.9326 22.4751 19.4961C22.4751 19.5808 22.5437 19.6495 22.6284 19.6495H45.1366C47.8766 19.6495 50.2105 21.6404 50.6423 24.3461L50.8078 25.3831C50.9155 26.0574 51.0107 26.7331 51.0936 27.41C51.1455 27.8346 50.6785 28.1352 50.2902 27.9556C49.1375 27.4227 47.8536 27.1253 46.5002 27.1253C41.5066 27.1253 37.4585 31.1734 37.4585 36.167C37.4585 38.1835 38.1186 40.0459 39.2346 41.5497Z" fill="white"/>
<path d="M46.5002 31.0003C43.6467 31.0003 41.3335 33.3135 41.3335 36.167C41.3335 39.0205 43.6467 41.3337 46.5002 41.3337C49.3536 41.3337 51.6668 39.0205 51.6668 36.167C51.6668 33.3135 49.3536 31.0003 46.5002 31.0003Z" fill="white"/>
<path d="M36.1668 52.9587C36.1668 48.6785 39.6366 45.2087 43.9168 45.2087H49.0835C53.3637 45.2087 56.8335 48.6785 56.8335 52.9587C56.8335 54.3854 55.6769 55.542 54.2502 55.542H38.7502C37.3234 55.542 36.1668 54.3854 36.1668 52.9587Z" fill="white"/>
</svg>
