<svg width="52" height="41" viewBox="0 0 52 41" fill="none" xmlns="http://www.w3.org/2000/svg">
<path d="M34.0525 26.6952C34.2661 26.983 34.1624 27.4068 33.8374 27.558C31.1994 28.7851 29.0987 30.9728 27.9846 33.6716C27.8195 34.0717 27.4432 34.353 27.0105 34.3617C21.3136 34.4771 15.6128 34.3314 9.92605 33.9245L6.01486 33.6447C3.51287 33.4657 1.44919 31.6161 0.998344 29.1485C-0.106429 23.102 -0.295564 16.9238 0.437281 10.821L1.1412 4.9591C1.481 2.12949 3.8815 0 6.73144 0H12.6513C15.2148 0 17.293 2.07813 17.293 4.64165C17.293 4.72633 17.3616 4.79497 17.4463 4.79497L39.9545 4.79497C42.6945 4.79497 45.0283 6.78587 45.4602 9.49159L45.6257 10.5286C45.7333 11.2029 45.8286 11.8787 45.9114 12.5555C45.9634 12.9801 45.4964 13.2807 45.1081 13.1011C43.9554 12.5682 42.6714 12.2708 41.318 12.2708C36.3245 12.2708 32.2764 16.3189 32.2764 21.3125C32.2764 23.329 32.9365 25.1914 34.0525 26.6952Z" fill="white"/>
<path d="M41.318 16.1458C38.4646 16.1458 36.1514 18.459 36.1514 21.3125C36.1514 24.166 38.4646 26.4792 41.318 26.4792C44.1715 26.4792 46.4847 24.166 46.4847 21.3125C46.4847 18.459 44.1715 16.1458 41.318 16.1458Z" fill="white"/>
<path d="M30.9847 38.1042C30.9847 33.824 34.4545 30.3542 38.7347 30.3542H43.9014C48.1816 30.3542 51.6514 33.824 51.6514 38.1042C51.6514 39.5309 50.4948 40.6875 49.068 40.6875H33.568C32.1413 40.6875 30.9847 39.5309 30.9847 38.1042Z" fill="white"/>
</svg>
