<svg width="62" height="44" viewBox="0 0 62 44" fill="none" xmlns="http://www.w3.org/2000/svg">
<path d="M18.6 22C24.5965 22 29.45 17.0786 29.45 11C29.45 4.9214 24.5965 0 18.6 0C12.6035 0 7.75 4.9214 7.75 11C7.75 17.0786 12.6035 22 18.6 22ZM26.04 25.1438H25.236C23.221 26.125 20.983 26.7146 18.6 26.7146C16.2168 26.7146 13.9887 26.125 11.964 25.1438H11.16C4.99875 25.1438 0 30.2104 0 36.4562V39.2854C0 41.888 2.08275 44 4.65 44H32.55C35.1172 44 37.2 41.888 37.2 39.2854V36.4562C37.2 30.2104 32.2012 25.1438 26.04 25.1438ZM46.5 22C51.6343 22 55.8 17.776 55.8 12.5708C55.8 7.36561 51.6343 3.1438 46.5 3.1438C41.3655 3.1438 37.2 7.36561 37.2 12.5708C37.2 17.776 41.3655 22 46.5 22ZM51.15 25.1438H50.782C49.4353 25.6146 48.0112 25.9292 46.5 25.9292C44.9887 25.9292 43.5647 25.6146 42.218 25.1438H41.85C39.8738 25.1438 38.0525 25.7224 36.454 26.6552C38.8178 29.238 40.3 32.6656 40.3 36.4562V40.2292C40.3 40.4448 40.2515 40.6516 40.2418 40.8562H57.35C59.9172 40.8562 62 38.7464 62 36.1438C62 30.063 57.1465 25.1438 51.15 25.1438Z" fill="#732322"/>
</svg>
