<svg width="40" height="39" viewBox="0 0 40 39" fill="none" xmlns="http://www.w3.org/2000/svg">
<path d="M19.0521 36.2604C19.0521 35.2421 19.8776 34.4167 20.8958 34.4167H35.6458C35.9853 34.4167 36.2604 34.1415 36.2604 33.8021L36.2604 4.30209C36.2604 3.96266 35.9853 3.6875 35.6458 3.6875L20.8958 3.6875C19.8776 3.6875 19.0521 2.86203 19.0521 1.84375C19.0521 0.825478 19.8776 0 20.8958 0H35.6458C38.0218 0 39.9479 1.92611 39.9479 4.30209V33.8021C39.9479 36.1781 38.0218 38.1042 35.6458 38.1042H20.8958C19.8776 38.1042 19.0521 37.2787 19.0521 36.2604Z" fill="#395497"/>
<path d="M0 21.7937C0 23.1514 1.10063 24.252 2.45833 24.252H14.396C14.4523 25.1257 14.5229 25.9988 14.6077 26.8708L14.6806 27.6211C14.7991 28.8411 16.0946 29.5716 17.1999 29.0419C21.6935 26.8884 25.7615 23.9414 29.2083 20.3427L29.2819 20.2658C29.9385 19.5803 29.9385 18.4991 29.2819 17.8135L29.2083 17.7366C25.7615 14.138 21.6935 11.191 17.1999 9.03744C16.0946 8.50772 14.7992 9.23831 14.6806 10.4582L14.6077 11.2085C14.5229 12.0806 14.4523 12.9536 14.396 13.8274L2.45833 13.8274C1.10064 13.8274 0 14.928 0 16.2857V21.7937Z" fill="#395497"/>
</svg>
