<svg width="48" height="37" viewBox="0 0 48 37" fill="none" xmlns="http://www.w3.org/2000/svg">
<path d="M0.693146 16.3545L16.9358 0.641483C18.3859 -0.761288 20.8352 0.286304 20.7963 2.33579L20.6252 11.4872L33.5303 11.7315C34.7919 11.7555 35.7891 12.7947 35.7658 14.0625L35.5928 23.2139C35.5694 24.4818 34.5353 25.4825 33.2738 25.4585L20.3667 25.2142L20.1956 34.3654C20.1568 36.4055 17.6803 37.3693 16.2749 35.9123L0.632876 19.5957C-0.234075 18.6828 -0.20685 17.2338 0.693146 16.3545ZM29.9284 1.36435L29.8565 5.17745C29.8448 5.80659 30.3483 6.33107 30.9742 6.34298L38.9459 6.49392C40.6254 6.52574 41.9569 7.91465 41.9238 9.60192L41.5817 27.9045C41.5487 29.5918 40.1666 30.9294 38.4871 30.8975L30.5155 30.7466C29.8896 30.7347 29.3667 31.2396 29.355 31.8688L29.2831 35.6819C29.2714 36.311 29.7749 36.8355 30.4008 36.8474L38.3725 36.9983C43.4031 37.0936 47.559 33.0718 47.6543 28.0196L47.9983 9.71693C48.0936 4.66449 44.0893 0.488201 39.0606 0.392913L31.0889 0.241979C30.461 0.230264 29.9401 0.735212 29.9284 1.36435Z" fill="white"/>
</svg>
