<svg width="42" height="43" viewBox="0 0 42 43" fill="none" xmlns="http://www.w3.org/2000/svg">
<path d="M1.12512 16.1336H40.8749C41.4931 16.1336 42 16.5807 42 17.1311V38.9753C42 41.1941 39.984 43 37.4995 43H4.50047C2.01599 43 0 41.1941 0 38.9753V17.1311C0 16.5807 0.506877 16.1336 1.12512 16.1336ZM42 12.4356V9.40835C42 7.17235 39.984 5.36639 37.4995 5.36639H33.0009V1.01474C33.0009 0.447141 32.4941 0 31.8758 0H28.1242C27.5059 0 26.9991 0.447141 26.9991 1.01474V5.36639H14.9991V1.01474C14.9991 0.447141 14.4941 0 13.8758 0H10.1242C9.50594 0 9.00094 0.447141 9.00094 1.01474V5.36639H4.50047C2.01599 5.36639 0 7.17235 0 9.40835V12.4356C0 12.986 0.506877 13.4333 1.12512 13.4333H40.8749C41.4931 13.4333 42 12.986 42 12.4356Z" fill="#732322"/>
</svg>
