<svg width="52" height="45" viewBox="0 0 52 45" fill="none" xmlns="http://www.w3.org/2000/svg">
<path d="M19.6177 24.0833C19.6177 20.5625 22.4719 17.7083 25.9927 17.7083C29.5135 17.7083 32.3677 20.5625 32.3677 24.0833C32.3677 27.6041 29.5135 30.4583 25.9927 30.4583C22.4719 30.4583 19.6177 27.6041 19.6177 24.0833Z" fill="white"/>
<path fill-rule="evenodd" clip-rule="evenodd" d="M13.1681 8.9036C13.1681 3.98628 17.1543 0 22.0717 0H29.9136C34.8309 0 38.8172 3.98628 38.8172 8.9036C38.8172 8.94565 38.8495 8.98066 38.8914 8.98406L45.2086 9.4971C48.0383 9.72691 50.3655 11.8194 50.8936 14.6089C52.2414 21.7271 52.3419 29.0254 51.1907 36.178L50.9151 37.8899C50.3957 41.1168 47.7398 43.5718 44.4821 43.8364L38.9789 44.2833C30.3356 44.9853 21.6496 44.9853 13.0064 44.2833L7.5031 43.8364C4.24538 43.5718 1.58951 41.1168 1.07011 37.8899L0.794568 36.178C-0.356702 29.0254 -0.256206 21.7271 1.09157 14.6089C1.61974 11.8194 3.94695 9.72691 6.77667 9.4971L13.0939 8.98406C13.1358 8.98066 13.1681 8.94565 13.1681 8.9036ZM25.9927 13.4583C20.1247 13.4583 15.3677 18.2153 15.3677 24.0833C15.3677 29.9514 20.1247 34.7083 25.9927 34.7083C31.8607 34.7083 36.6177 29.9514 36.6177 24.0833C36.6177 18.2153 31.8607 13.4583 25.9927 13.4583Z" fill="white"/>
</svg>
