<svg width="37" height="37" viewBox="0 0 37 37" fill="none" xmlns="http://www.w3.org/2000/svg">
<path d="M8.21828 0.560754C14.908 -0.186918 21.8227 -0.186918 28.5124 0.560754C31.024 0.841464 33.2288 2.1997 34.6235 4.17221L17.282 21.5137L11.9311 16.1627C11.2965 15.5281 10.2676 15.5281 9.63297 16.1627C8.99837 16.7973 8.99837 17.8262 9.63297 18.4608L16.133 24.9608C16.7676 25.5954 17.7965 25.5954 18.4311 24.9608L36.0145 7.3774C36.0632 7.61479 36.1021 7.85585 36.1306 8.10017C36.9306 14.9402 36.9306 21.8501 36.1306 28.6901C35.6651 32.6702 32.4695 35.7872 28.5124 36.2295C21.8227 36.9772 14.908 36.9772 8.21828 36.2295C4.26112 35.7872 1.06551 32.6702 0.6 28.6901C-0.2 21.8501 -0.2 14.9402 0.6 8.10017C1.06551 4.12008 4.26112 1.00302 8.21828 0.560754Z" fill="black"/>
</svg>
