<svg width="45" height="60" viewBox="0 0 45 60" fill="none" xmlns="http://www.w3.org/2000/svg">
<path fill-rule="evenodd" clip-rule="evenodd" d="M11.25 8.25C11.25 3.69365 14.9437 0 19.5 0H25.5C30.0564 0 33.75 3.69365 33.75 8.25V14.25C33.75 15.4926 32.7426 16.5 31.5 16.5H13.5C12.2574 16.5 11.25 15.4926 11.25 14.25V8.25ZM19.5 4.5C17.4289 4.5 15.75 6.17893 15.75 8.25V12H29.25V8.25C29.25 6.17893 27.5711 4.5 25.5 4.5H19.5Z" fill="#732322"/>
<path fill-rule="evenodd" clip-rule="evenodd" d="M5.96079 8.03631C6.34005 7.85448 6.76114 8.14388 6.76038 8.56448L6.75 14.25C6.75 17.9779 9.77208 21 13.5 21H31.5C35.2279 21 38.25 17.9779 38.25 14.25V8.56278C38.25 8.14265 38.6708 7.85401 39.0496 8.03564C42.6049 9.74008 45 13.3704 45 17.5064V48.9746C45 54.107 41.1771 58.4355 36.0841 59.0698C27.0629 60.1933 17.9371 60.1933 8.91591 59.0698C3.82294 58.4355 0 54.107 0 48.9746V17.5064C0 13.3709 2.40483 9.74104 5.96079 8.03631ZM31.5 29.25C32.7426 29.25 33.75 30.2574 33.75 31.5C33.75 32.7426 32.7426 33.75 31.5 33.75H13.5C12.2574 33.75 11.25 32.7426 11.25 31.5C11.25 30.2574 12.2574 29.25 13.5 29.25H31.5ZM28.5 38.25C29.7426 38.25 30.75 39.2574 30.75 40.5C30.75 41.7426 29.7426 42.75 28.5 42.75H13.5C12.2574 42.75 11.25 41.7426 11.25 40.5C11.25 39.2574 12.2574 38.25 13.5 38.25H28.5Z" fill="#732322"/>
</svg>
