<svg width="40" height="32" viewBox="0 0 40 32" fill="none" xmlns="http://www.w3.org/2000/svg">
<path d="M20 25.0045C15.2592 25.0045 11.4224 21.326 11.0688 16.6878L4.51198 11.6177C3.65118 12.6893 2.85754 13.8409 2.21754 15.0884C2.07354 15.3763 1.99996 15.6801 1.99996 16C1.99996 16.3199 2.07354 16.6237 2.21754 16.9116C5.60635 23.517 12.3168 27.9953 20 27.9953C21.6816 27.9953 23.304 27.7393 24.8672 27.3395L21.6256 24.8286C21.0896 24.9405 20.5456 24.9885 20 25.0045ZM39.6144 28.6191L32.704 23.2932C34.8032 21.5179 36.5296 19.3586 37.7824 16.9116C37.9249 16.6237 38 16.3199 38 16C38 15.6801 37.9249 15.3763 37.7824 15.0884C34.3936 8.48303 27.6832 4.0047 20 4.0047C16.7824 4.0047 13.616 4.82033 10.792 6.35573L2.84157 0.214195C2.73756 0.134227 2.61914 0.0702751 2.49274 0.0382876C2.36474 0.00630013 2.2336 -0.00972483 2.1024 0.0062689C1.9728 0.0382564 1.84637 0.0701735 1.73277 0.134148C1.61757 0.198123 1.51838 0.29414 1.43678 0.390103L0.211189 1.97347C0.0479888 2.18139 -0.025634 2.45322 0.00796607 2.70912C0.0399661 2.96502 0.176003 3.20499 0.385604 3.38092L37.1584 31.7858C37.2624 31.8658 37.3809 31.9297 37.5073 31.9617C37.6337 31.9937 37.7664 32.0097 37.8976 31.9937C38.0272 31.9777 38.1536 31.9298 38.2672 31.8659C38.3808 31.8019 38.4817 31.7059 38.5617 31.6099L39.7905 30.0265C39.9521 29.8186 40.0256 29.5468 39.992 29.2909C39.96 29.035 39.8224 28.795 39.6144 28.6191ZM28.1312 19.7585L25.6752 17.8553C25.8816 17.2636 25.992 16.6397 26 16C26.0128 15.0724 25.8064 14.1606 25.4016 13.329C24.9952 12.4973 24.3984 11.7617 23.6624 11.2019C22.9248 10.6421 22.0656 10.2743 21.1552 10.0984C20.2448 9.93847 19.3072 9.9864 18.4176 10.2423C18.7952 10.7541 18.9984 11.3618 19 12.0016C18.9904 12.2095 18.9584 12.4174 18.904 12.6253L14.3024 9.07478C15.9008 7.73131 17.9168 7.01153 20 7.01153C21.1824 6.99554 22.352 7.23551 23.4448 7.68334C24.5376 8.13116 25.5296 8.80285 26.3648 9.63453C27.2017 10.4662 27.864 11.4577 28.3168 12.5613C28.768 13.6489 29 14.8165 29 16C29 17.3595 28.6688 18.6069 28.1312 19.7585Z" fill="black"/>
</svg>
