<svg width="42" height="48" viewBox="0 0 42 48" fill="none" xmlns="http://www.w3.org/2000/svg">
<path d="M41.0903 17.1209V39.3782C41.0903 41.6485 40.1884 43.8259 38.583 45.4313C36.9776 47.0367 34.8002 47.9386 32.5298 47.9386H8.56047C6.29009 47.9386 4.1127 47.0367 2.5073 45.4313C0.901904 43.8259 0 41.6485 0 39.3782V8.56047C0 6.29009 0.901904 4.1127 2.5073 2.5073C4.1127 0.901904 6.29009 0 8.56047 0H23.9693V11.9847C23.9693 13.3469 24.5105 14.6533 25.4737 15.6166C26.4369 16.5798 27.7434 17.1209 29.1056 17.1209H41.0903Z" fill="white"/>
<path d="M40.9362 13.697H29.1056C28.6516 13.697 28.2161 13.5166 27.895 13.1955C27.5739 12.8744 27.3936 12.4389 27.3936 11.9849V0.154297C29.4197 0.499591 31.2872 1.4693 32.7353 2.92789L38.1626 8.35523C39.6184 9.80532 40.5877 11.672 40.9362 13.697V13.697Z" fill="white"/>
</svg>
