<svg width="52" height="65" viewBox="0 0 52 65" fill="none" xmlns="http://www.w3.org/2000/svg">
<path fill-rule="evenodd" clip-rule="evenodd" d="M32.9167 0.822916C32.9167 0.368432 32.5482 0 32.0937 0H9.05208C4.05275 0 0 4.05276 0 9.05209V55.1354C0 60.1347 4.05275 64.1875 9.05208 64.1875H41.9687C46.9681 64.1875 51.0208 60.1347 51.0208 55.1354V22.7028C51.0208 22.2483 50.6524 21.8799 50.1979 21.8799H35.3854C34.022 21.8799 32.9167 20.7746 32.9167 19.4112V0.822916ZM32.1975 36.4903C33.2621 37.342 34.8157 37.1694 35.6674 36.1047C36.5192 35.04 36.3466 33.4865 35.2819 32.6347L27.0727 26.0673C26.649 25.7208 26.1081 25.5123 25.5186 25.5104L25.5106 25.5104L25.4898 25.5105C24.9103 25.5153 24.3784 25.7197 23.9595 26.0584L15.7391 32.6347C14.6744 33.4865 14.5018 35.04 15.3536 36.1047C16.2053 37.1694 17.7589 37.342 18.8236 36.4903L23.0418 33.1156V44.4375C23.0418 45.801 24.1471 46.9063 25.5106 46.9063C26.874 46.9063 27.9793 45.801 27.9793 44.4375V33.1158L32.1975 36.4903Z" fill="white"/>
<path d="M37.8542 1.88986C37.8542 1.28256 38.4883 0.896964 38.9608 1.27844C39.3588 1.59975 39.7166 1.97618 40.0218 2.40143L49.9401 16.2195C50.1659 16.5341 49.9214 16.9424 49.5341 16.9424H38.6771C38.2226 16.9424 37.8542 16.574 37.8542 16.1195V1.88986Z" fill="white"/>
</svg>
