<svg viewBox="0 0 63 54" fill="none" xmlns="http://www.w3.org/2000/svg">
<path d="M63.0003 19.9853V42.1728C63.0003 45.1151 61.815 47.9368 59.7052 50.0173C57.5954 52.0978 54.734 53.2666 51.7503 53.2666H11.2503C8.26659 53.2666 5.40511 52.0978 3.29532 50.0173C1.18554 47.9368 0.00027632 45.1151 0.00027632 42.1728V11.1103C-0.00518224 10.3649 0.0702468 9.62111 0.225276 8.89156C0.61329 7.02735 1.4811 5.29292 2.74528 3.855C2.94778 3.61093 3.17278 3.38906 3.39778 3.16718C4.29841 2.26013 5.34823 1.50995 6.50278 0.948435L7.20028 0.63781L7.60528 0.504684L8.14528 0.327184L8.57278 0.216247H9.20278C9.49691 0.126156 9.79786 0.0593804 10.1028 0.0165594C10.4849 -0.00551979 10.8681 -0.00551979 11.2503 0.0165594H18.0003C19.7452 0.0250675 21.4648 0.429787 23.0256 1.19933C24.5863 1.96888 25.9464 3.08257 27.0003 4.45406C27.2457 4.76531 27.4711 5.09136 27.6753 5.43031C28.2635 6.46658 29.1179 7.33197 30.1527 7.93953C31.1874 8.54709 32.3661 8.87543 33.5703 8.89156H51.7503C54.186 8.88183 56.5576 9.66137 58.5003 11.1103C59.8975 12.1437 61.0315 13.4836 61.8126 15.024C62.5936 16.5645 63.0003 18.2631 63.0003 19.9853Z" fill="currentColor"/>
<path d="M51.7504 0.0156252H29.0254C29.989 0.952416 30.8214 2.012 31.5004 3.16625C31.6954 3.53583 31.9847 3.84889 32.3398 4.07456C32.6949 4.30024 33.1035 4.43071 33.5254 4.45312H51.7504C51.9748 4.43103 52.2009 4.43103 52.4254 4.45312C56.3192 4.59306 60.0159 6.17796 62.7754 8.89062C62.2567 6.38485 60.876 4.13275 58.8669 2.51548C56.8579 0.898207 54.3439 0.0151033 51.7504 0.0156252V0.0156252Z" fill="currentColor"/>
</svg>
