<svg viewBox="0 0 66 49" fill="none" xmlns="http://www.w3.org/2000/svg">
<path fill-rule="evenodd" clip-rule="evenodd" d="M64.7591 14.9439C66.1814 23.855 66.0795 32.9431 64.4575 41.8201C63.8658 45.0587 61.1572 47.4863 57.8733 47.7213L51.8678 48.1509C39.2908 49.0507 26.6656 49.0507 14.0886 48.1509L8.53722 47.7538C4.98602 47.4997 2.05691 44.8744 1.417 41.3721C-0.151061 32.79 -0.41951 24.0208 0.620657 15.3588L1.61977 7.03873C2.10206 3.02251 5.50923 0 9.5543 0H17.9567C21.5952 0 24.5449 2.94961 24.5449 6.58814C24.5449 6.70833 24.6423 6.80577 24.7625 6.80577L56.7096 6.80577C60.5986 6.80577 63.9112 9.63156 64.5241 13.4719L64.7591 14.9439ZM35.7283 19.25C35.7283 17.7312 34.4971 16.5 32.9783 16.5C31.4595 16.5 30.2283 17.7312 30.2283 19.25V25.6667H23.8116C22.2928 25.6667 21.0616 26.8979 21.0616 28.4167C21.0616 29.9354 22.2928 31.1667 23.8116 31.1667H30.2283V37.5833C30.2283 39.1021 31.4595 40.3333 32.9783 40.3333C34.4971 40.3333 35.7283 39.1021 35.7283 37.5833V31.1667H42.145C43.6637 31.1667 44.895 29.9354 44.895 28.4167C44.895 26.8979 43.6637 25.6667 42.145 25.6667H35.7283V19.25Z" fill="currentColor"/>
</svg>
