<svg viewBox="0 0 49 37" fill="none" xmlns="http://www.w3.org/2000/svg">
<path d="M12.875 0C5.92286 0 0 5.19825 0 11.9495C0 16.6069 2.18087 20.528 5.07123 23.7761C7.95166 27.013 11.6679 29.73 15.0274 32.0041L20.824 35.9277C21.4588 36.3574 22.2912 36.3574 22.926 35.9277L28.7226 32.0041C29.7968 31.2769 30.9076 30.5045 32.0158 29.6842C32.3057 29.4697 32.398 29.078 32.2379 28.7548L28.8309 21.877C28.67 21.5523 28.2278 21.5012 27.9972 21.7808L27.8152 22.0014C26.8654 23.1527 25.4509 23.8194 23.9583 23.8194H19.375C16.6136 23.8194 14.375 21.5809 14.375 18.8194C14.375 16.058 16.6136 13.8194 19.375 13.8194H21.13C21.4285 13.8194 21.7114 13.6861 21.9014 13.4558L25.8306 8.69308C26.9264 7.36489 28.6284 6.69396 30.3358 6.9172C32.0431 7.14044 33.5154 8.22645 34.2328 9.79172L36.2396 14.1701C36.4501 14.6295 37.0486 14.7519 37.4852 14.4976C38.2282 14.0648 39.0895 13.8194 40 13.8194H42.971C43.3485 13.8194 43.6693 13.539 43.7003 13.1628C43.7331 12.764 43.75 12.3596 43.75 11.9495C43.75 5.19825 37.8271 0 30.875 0C27.2913 0 24.1379 1.68035 21.875 3.85458C19.6121 1.68035 16.4587 0 12.875 0Z" fill="currentColor"/>
<path d="M31.392 11.0938C31.123 10.5068 30.5708 10.0995 29.9306 10.0158C29.2904 9.93211 28.6521 10.1837 28.2412 10.6818L23.0745 16.9444H19.375C18.3395 16.9444 17.5 17.7839 17.5 18.8194C17.5 19.855 18.3395 20.6944 19.375 20.6944H23.9583C24.518 20.6944 25.0485 20.4444 25.4047 20.0127L29.2297 15.3763L33.7122 25.1562C33.9812 25.7432 34.5333 26.1505 35.1736 26.2342C35.8138 26.3179 36.4521 26.0663 36.863 25.5682L40.8839 20.6944H46.875C47.9105 20.6944 48.75 19.855 48.75 18.8194C48.75 17.7839 47.9105 16.9444 46.875 16.9444H40C39.4403 16.9444 38.9099 17.1945 38.5537 17.6262L35.8745 20.8737L31.392 11.0938Z" fill="currentColor"/>
</svg>
