<svg viewBox="0 0 31 31" fill="none" xmlns="http://www.w3.org/2000/svg">
<path fill-rule="evenodd" clip-rule="evenodd" d="M6.79589 0.463701C12.3278 -0.154567 18.0457 -0.154567 23.5775 0.463701C26.8498 0.829424 29.4923 3.40699 29.8773 6.69822C30.5388 12.3544 30.5388 18.0683 29.8773 23.7245C29.4923 27.0157 26.8498 29.5933 23.5775 29.959C18.0457 30.5773 12.3278 30.5773 6.79588 29.959C3.52362 29.5933 0.881092 27.0157 0.496154 23.7245C-0.165385 18.0683 -0.165384 12.3544 0.496154 6.69822C0.881092 3.40699 3.52362 0.829424 6.79589 0.463701ZM16.9784 8.04469C16.9784 9.0342 16.1762 9.83635 15.1867 9.83635C14.1972 9.83635 13.3951 9.0342 13.3951 8.04469C13.3951 7.05518 14.1972 6.25302 15.1867 6.25302C16.1762 6.25302 16.9784 7.05518 16.9784 8.04469ZM15.1867 12.9718C15.9289 12.9718 16.5305 13.5734 16.5305 14.3155V23.2739C16.5305 24.016 15.9289 24.6176 15.1867 24.6176C14.4446 24.6176 13.843 24.016 13.843 23.2739V14.3155C13.843 13.5734 14.4446 12.9718 15.1867 12.9718Z" fill="currentColor"/>
</svg>
