<svg viewBox="0 0 78 42" fill="none" xmlns="http://www.w3.org/2000/svg">
<path fill-rule="evenodd" clip-rule="evenodd" d="M0 20.8438C0 9.33206 9.33206 0 20.8438 0C28.7483 0 35.6201 4.3997 39.1529 10.875H71.5938C75.0973 10.875 77.9375 13.7152 77.9375 17.2188V26.2812C77.9375 27.7828 76.7203 29 75.2188 29H67.0625V35.3438C67.0625 36.8453 65.8453 38.0625 64.3438 38.0625H55.2812C53.7797 38.0625 52.5625 36.8453 52.5625 35.3438V29H40.0304C36.8568 36.456 29.4642 41.6875 20.8438 41.6875C9.33206 41.6875 0 32.3554 0 20.8438ZM20.8438 13.5938C16.8397 13.5938 13.5938 16.8397 13.5938 20.8438C13.5938 24.8478 16.8397 28.0938 20.8438 28.0938C24.8478 28.0938 28.0938 24.8478 28.0938 20.8438C28.0938 16.8397 24.8478 13.5938 20.8438 13.5938Z" fill="currentColor"/>
</svg>
