<svg viewBox="0 0 41 55" fill="none" xmlns="http://www.w3.org/2000/svg">
<path fill-rule="evenodd" clip-rule="evenodd" d="M7.19089 15.5293L8.1629 24.2774L6.19592 24.4344C3.45299 24.6534 1.21324 26.7153 0.768594 29.4308C-0.256198 35.6894 -0.256198 42.0729 0.768594 48.3315C1.21324 51.047 3.45299 53.1089 6.19592 53.3279L10.435 53.6663C17.1277 54.2006 23.8524 54.2006 30.5451 53.6663L34.7842 53.3279C37.5271 53.1089 39.7668 51.047 40.2115 48.3315C41.2363 42.0729 41.2363 35.6894 40.2115 29.4308C39.7668 26.7153 37.5271 24.6534 34.7842 24.4344L32.8169 24.2774L33.7889 15.5293C33.9035 14.498 33.9035 13.4573 33.7889 12.426L33.7244 11.8454C33.0402 5.6875 28.1991 0.815135 22.0457 0.0912063C21.0121 -0.0304021 19.9677 -0.0304021 18.934 0.0912061C12.7806 0.815135 7.93961 5.6875 7.25539 11.8454L7.19089 12.426C7.0763 13.4572 7.0763 14.498 7.19089 15.5293ZM21.5492 4.3121C20.8454 4.2293 20.1344 4.2293 19.4306 4.3121C15.2412 4.80497 11.9452 8.12224 11.4794 12.3148L11.4149 12.8953C11.335 13.6147 11.335 14.3406 11.4149 15.06L12.4032 23.9544C17.7888 23.609 23.191 23.609 28.5766 23.9543L29.5649 15.06C29.6448 14.3406 29.6448 13.6147 29.5649 12.8953L29.5004 12.3148C29.0346 8.12224 25.7386 4.80497 21.5492 4.3121ZM20.49 34.6312C18.1428 34.6312 16.24 36.5339 16.24 38.8812C16.24 41.2284 18.1428 43.1312 20.49 43.1312C22.8372 43.1312 24.74 41.2284 24.74 38.8812C24.74 36.5339 22.8372 34.6312 20.49 34.6312Z" fill="currentColor"/>
</svg>
