<svg viewBox="0 0 40 45" fill="none" xmlns="http://www.w3.org/2000/svg">
<path fill-rule="evenodd" clip-rule="evenodd" d="M5.51645 11.8754L6.26796 18.6389L5.23641 18.7295C2.8518 18.9389 0.921833 20.756 0.569385 23.1237C-0.189795 28.2238 -0.189795 33.4082 0.569385 38.5082C0.921833 40.8759 2.8518 42.6931 5.2364 42.9025L7.69438 43.1183C10.3381 43.3505 12.9895 43.4672 15.6408 43.4686C16.0201 43.4688 16.2173 43.0098 15.9737 42.7191C13.7657 40.0847 12.4363 36.6889 12.4363 32.9826C12.4363 25.6605 17.625 19.5503 24.526 18.1283C24.9076 18.0497 25.2043 17.7413 25.2474 17.3541L25.8561 11.8754C25.9437 11.0867 25.9437 10.2908 25.8561 9.50222L25.8068 9.05828C25.2836 4.34927 21.5816 0.623339 16.876 0.069746C16.0856 -0.0232486 15.287 -0.0232486 14.4965 0.0697458C9.79098 0.623338 6.089 4.34926 5.56578 9.05828L5.51645 9.50222C5.42883 10.2908 5.42883 11.0867 5.51645 11.8754ZM16.4963 3.29749C15.9581 3.23417 15.4144 3.23417 14.8762 3.29749C11.6726 3.67439 9.15213 6.21113 8.7959 9.41718L8.74658 9.86112C8.68546 10.4112 8.68546 10.9664 8.74658 11.5165L9.50836 18.3725C13.6223 18.0937 17.7503 18.0937 21.8642 18.3725L22.626 11.5165C22.6871 10.9664 22.6871 10.4112 22.626 9.86112L22.5767 9.41718C22.2204 6.21113 19.7 3.67439 16.4963 3.29749Z" fill="currentColor"/>
<path d="M29.2279 29.7326C29.2279 28.8352 28.5004 28.1076 27.6029 28.1076C26.7055 28.1076 25.9779 28.8352 25.9779 29.7326V33.5736C25.9779 34.0935 26.2267 34.582 26.6472 34.8878L28.8138 36.4635C29.5396 36.9914 30.556 36.8309 31.0838 36.1051C31.6117 35.3793 31.4512 34.363 30.7254 33.8351L29.2279 32.7461V29.7326Z" fill="currentColor"/>
<path fill-rule="evenodd" clip-rule="evenodd" d="M27.6029 44.8993C34.1843 44.8993 39.5196 39.564 39.5196 32.9826C39.5196 26.4013 34.1843 21.066 27.6029 21.066C21.0216 21.066 15.6863 26.4013 15.6863 32.9826C15.6863 39.564 21.0216 44.8993 27.6029 44.8993ZM27.6029 41.6493C32.3894 41.6493 36.2696 37.7691 36.2696 32.9826C36.2696 28.1962 32.3894 24.316 27.6029 24.316C22.8165 24.316 18.9363 28.1962 18.9363 32.9826C18.9363 37.7691 22.8165 41.6493 27.6029 41.6493Z" fill="currentColor"/>
</svg>
