<svg width="31" height="34" viewBox="0 0 31 34" fill="none" xmlns="http://www.w3.org/2000/svg">
<path fill-rule="evenodd" clip-rule="evenodd" d="M8.56452 0C3.83447 0 0 3.83446 0 8.56452V27.5968H0.0674587C0.52921 30.8249 3.30545 33.3064 6.66129 33.3064H28.5484C29.5995 33.3064 30.4516 32.4543 30.4516 31.4032V2.85484C30.4516 1.27815 29.1735 0 27.5968 0H8.56452ZM6.66129 22.8387H27.5968V30.4516H6.66129C4.55905 30.4516 2.85484 28.7474 2.85484 26.6452C2.85484 24.5429 4.55905 22.8387 6.66129 22.8387ZM21.924 9.59424C22.4927 9.04829 22.5112 8.14468 21.9652 7.57598C21.4193 7.00728 20.5157 6.98884 19.947 7.5348L14.9879 12.2955L12.4079 9.81867C11.8392 9.27271 10.9356 9.29116 10.3896 9.85985C9.84368 10.4286 9.86212 11.3322 10.4308 11.8781L13.9994 15.3039C14.5517 15.8342 15.4241 15.8342 15.9764 15.3039L21.924 9.59424Z" fill="white"/>
</svg>
