<svg width="40" height="44" viewBox="0 0 40 44" fill="none" xmlns="http://www.w3.org/2000/svg">
<path fill-rule="evenodd" clip-rule="evenodd" d="M0 11.0625C0 4.95285 4.95285 0 11.0625 0H35.6458C37.6824 0 39.3333 1.65095 39.3333 3.6875V40.5625C39.3333 41.9202 38.2327 43.0208 36.875 43.0208H8.60417C4.26955 43.0208 0.683562 39.8155 0.0871342 35.6458H0V11.0625ZM35.6458 29.5H8.60417C5.88877 29.5 3.6875 31.7013 3.6875 34.4167C3.6875 37.1321 5.88877 39.3333 8.60417 39.3333H35.6458V29.5ZM10.4479 11.0625C10.4479 10.0442 11.2734 9.21875 12.2917 9.21875H29.5C30.5183 9.21875 31.3437 10.0442 31.3437 11.0625C31.3437 12.0808 30.5183 12.9062 29.5 12.9062H12.2917C11.2734 12.9062 10.4479 12.0808 10.4479 11.0625ZM12.2917 16.5937C11.2734 16.5937 10.4479 17.4192 10.4479 18.4375C10.4479 19.4558 11.2734 20.2812 12.2917 20.2812H24.5833C25.6016 20.2812 26.4271 19.4558 26.4271 18.4375C26.4271 17.4192 25.6016 16.5937 24.5833 16.5937H12.2917Z" fill="white"/>
</svg>
