<svg width="45" height="50" viewBox="0 0 45 50" fill="none" xmlns="http://www.w3.org/2000/svg">
<path d="M27.8608 1.16962C26.2246 0.437011 24.4195 0 22.5 0C17.107 0 12.5055 3.23477 10.5962 7.81303H18.7513L27.8608 1.16962ZM34.4039 7.81303C33.6103 5.91086 32.3278 4.2783 30.7386 2.97613L24.106 7.81303H34.4039ZM22.5 25C29.6005 25 35.3572 19.4043 35.3572 12.5C35.3572 11.9652 35.2618 11.4544 35.1954 10.937H9.8046C9.73733 11.4544 9.64283 11.9652 9.64283 12.5C9.64283 19.4043 15.3994 25 22.5 25ZM8.03565 29.2674V50H20.9189L11.0299 28.3674C9.999 28.5522 8.99392 28.8544 8.03565 29.2674ZM0 45.313C0 47.9022 2.15865 50 4.82152 50V31.2739C1.89652 33.6804 0 37.2326 0 41.2499V45.313ZM25.7144 40.6261H20.1514L24.4377 50H25.7144C28.3732 50 30.5356 47.8978 30.5356 45.313C30.5356 42.7282 28.3732 40.6261 25.7144 40.6261ZM31.5 28.1261H29.8215C27.5877 29.1195 25.1127 29.687 22.5 29.687C19.8873 29.687 17.4123 29.1195 15.1785 28.1261H14.4382L18.7243 37.5H25.7144C30.1451 37.5 33.75 41.0043 33.75 45.313C33.75 47.0782 33.1211 48.6913 32.1016 50H40.1785C42.8414 50 45 47.9022 45 45.313V41.2499C45 33.9999 38.9561 28.1261 31.5 28.1261Z" fill="black"/>
</svg>
