<svg viewBox="0 0 42 42" fill="none" xmlns="http://www.w3.org/2000/svg">
<path d="M40.2998 11.5099L36.5781 15.2404C36.1765 15.623 35.5875 15.623 35.1858 15.2404L26.2166 6.24905C25.8418 5.86645 25.8418 5.26088 26.2166 4.87828L29.9382 1.1478C31.4644 -0.3826 33.9274 -0.3826 35.4267 1.1478L40.2998 5.99412C41.8259 7.52452 41.8259 9.97947 40.2998 11.5099ZM23.0035 8.06661L1.7451 29.3325L0.0315269 39.1847C-0.209439 40.492 0.968527 41.6396 2.28045 41.4164L12.1066 39.6946L33.3651 18.4287C33.7667 18.0461 33.7667 17.4401 33.3651 17.0575L24.3958 8.06661C23.9942 7.68401 23.3784 7.68401 23.0035 8.06661ZM10.045 27.5153C9.58983 27.069 9.58983 26.3675 10.045 25.9212L22.5218 13.4547C22.9502 13.0083 23.673 13.0083 24.1014 13.4547C24.5565 13.9011 24.5565 14.6025 24.1014 15.0489L11.6514 27.5153C11.1962 27.9617 10.5001 27.9617 10.045 27.5153ZM7.12671 34.3065H11.0088V37.2714L5.78801 38.1643L3.27108 35.6457L4.18163 30.4488H7.12671V34.3065Z" fill="currentColor"/>
</svg>
