<svg width="51" height="51" viewBox="0 0 51 51" fill="none" xmlns="http://www.w3.org/2000/svg">
<path d="M37.5887 0.580465C38.0495 0.62428 38.2483 1.18383 37.921 1.51116L15.0407 24.3914C14.7816 24.6505 14.5962 24.974 14.5036 25.3286L11.7536 35.8568C11.5685 36.5652 11.773 37.3187 12.2907 37.8364C12.8085 38.3542 13.5619 38.5586 14.2704 38.3736L24.7985 35.6236C25.1531 35.5309 25.4766 35.3455 25.7357 35.0864L48.94 11.8821C49.2656 11.5565 49.8222 11.7513 49.8702 12.2092C50.837 21.4194 50.7823 30.7099 49.7062 39.911C49.0934 45.1499 44.8826 49.2633 39.6621 49.8468C30.1797 50.9065 20.3768 50.9065 10.8944 49.8468C5.67384 49.2633 1.46307 45.1499 0.85033 39.911C-0.283443 30.2172 -0.283443 20.4244 0.85033 10.7306C1.46307 5.49171 5.67385 1.37832 10.8944 0.794842C19.6873 -0.187885 28.7558 -0.259344 37.5887 0.580465Z" fill="black"/>
<path d="M41.2924 3.97332C41.5608 3.70536 41.9955 3.70536 42.2639 3.97331L46.1534 7.8628C46.4219 8.13129 46.4219 8.56659 46.1534 8.83507L23.3465 31.642C23.2606 31.7279 23.1516 31.79 23.0341 31.821L17.7695 33.1962C17.2617 33.3284 16.7993 32.8648 16.9311 32.3571L18.3061 27.093C18.337 26.9748 18.3988 26.867 18.4851 26.7806L41.2924 3.97332Z" fill="black"/>
</svg>
