<svg width="44" height="44" viewBox="0 0 44 44" fill="none" xmlns="http://www.w3.org/2000/svg">
<path d="M32.9553 0.916092C31.392 -0.647199 28.7442 -0.137266 27.8733 1.8948L23.4748 12.1579C19.8611 11.0872 15.7881 11.9773 12.9341 14.8314L9.54274 18.2227C8.81051 18.9549 8.81051 20.1421 9.54274 20.8744L14.8972 26.2288L0.549176 40.5767C-0.183059 41.309 -0.183058 42.4962 0.549174 43.2284C1.28141 43.9606 2.46859 43.9606 3.20082 43.2284L17.5488 28.8804L22.9034 34.235C23.6356 34.9672 24.8228 34.9672 25.555 34.235L28.9464 30.8436C31.8004 27.9896 32.6905 23.9166 31.6198 20.3029L41.8829 15.9044C43.915 15.0335 44.4249 12.3857 42.8616 10.8224L32.9553 0.916092Z" fill="white"/>
</svg>
