<svg viewBox="0 0 63 59" fill="none" xmlns="http://www.w3.org/2000/svg">
<path d="M13.8024 12.7499C13.8024 16.1729 16.5773 18.9478 20.0003 18.9478H41.2503C44.6734 18.9478 47.4483 16.1729 47.4483 12.7499V0.978469C47.4483 0.438076 47.8863 0 48.4267 0C48.9435 0 49.4345 0.22572 49.7709 0.617959L60.2636 12.8515C61.7179 14.5471 62.4775 16.7296 62.3903 18.9616L61.1804 49.929C60.9947 54.6809 57.0885 58.4375 52.333 58.4375H50.9899C50.0119 58.4375 49.2191 57.6447 49.2191 56.6667V38.9583C49.2191 35.5353 46.4442 32.7604 43.0212 32.7604H18.2295C14.8065 32.7604 12.0316 35.5353 12.0316 38.9583V56.6667C12.0316 57.6447 11.2388 58.4375 10.2608 58.4375H9.77523C5.51168 58.4375 1.9122 55.2695 1.37078 51.0404C-0.378499 37.3766 -0.453854 23.5503 1.14639 9.86822L1.36203 8.02452C1.89713 3.4494 5.77349 0 10.3798 0H12.0316C13.0096 0 13.8024 0.792829 13.8024 1.77083V12.7499Z" fill="currentColor"/>
<path d="M17.3441 56.6667C17.3441 57.6447 18.1369 58.4375 19.1149 58.4375H42.1358C43.1138 58.4375 43.9066 57.6447 43.9066 56.6667V38.9583C43.9066 38.4693 43.5102 38.0729 43.0212 38.0729H18.2295C17.7405 38.0729 17.3441 38.4693 17.3441 38.9583V56.6667Z" fill="currentColor"/>
<path d="M42.1358 1.77083C42.1358 0.792829 41.3429 0 40.3649 0H20.8858C19.9078 0 19.1149 0.792829 19.1149 1.77083V12.7499C19.1149 13.2389 19.5113 13.6353 20.0003 13.6353H41.2503C41.7393 13.6353 42.1358 13.2389 42.1358 12.7499V1.77083Z" fill="currentColor"/>
</svg>
