<svg width="23" height="35" viewBox="0 0 23 35" fill="none" xmlns="http://www.w3.org/2000/svg">
<path d="M1.80859 1.79102C2.85854 0.755919 4.54566 0.732289 5.60938 1.75684L5.61133 1.75488L21.1533 15.5332L21.1924 15.5703C22.2689 16.6345 22.2689 18.3655 21.1924 19.4297L21.1533 19.4668L5.61133 33.2451L5.60938 33.2432C4.54566 34.2677 2.85854 34.2441 1.80859 33.209L1.80762 33.208C0.73108 32.1439 0.731082 30.4128 1.80762 29.3486L1.8291 29.3281L1.85156 29.3086L15.3164 17.5L1.85156 5.69141L1.8291 5.67188L1.80762 5.65137C0.731081 4.58721 0.731081 2.85615 1.80762 1.79199L1.80859 1.79102Z" fill="white" stroke="white" stroke-width="2"/>
</svg>
