<svg viewBox="0 0 50 65" fill="none" xmlns="http://www.w3.org/2000/svg">
<path d="M16.0417 2.40625C16.0417 1.07731 17.119 0 18.4479 0H31.2813C32.6102 0 33.6875 1.07731 33.6875 2.40625V4.8125H47.3229C48.6519 4.8125 49.7292 5.88982 49.7292 7.21875C49.7292 8.54769 48.6519 9.625 47.3229 9.625H2.40625C1.07731 9.625 0 8.54769 0 7.21875C0 5.88982 1.07731 4.8125 2.40625 4.8125H16.0417V2.40625Z" fill="currentColor"/>
<path fill-rule="evenodd" clip-rule="evenodd" d="M6.38425 18.2708C6.47452 17.4584 7.1612 16.8438 7.9786 16.8438H41.7505C42.5679 16.8438 43.2546 17.4584 43.3449 18.2708L43.987 24.0501C45.1445 34.4675 45.1445 44.981 43.987 55.3984L43.9238 55.9673C43.5023 59.7615 40.5617 62.7868 36.7811 63.3161C28.8753 64.4229 20.8538 64.4229 12.948 63.3161C9.1674 62.7868 6.22689 59.7614 5.80532 55.9673L5.7421 55.3984C4.58462 44.981 4.58462 34.4675 5.7421 24.0501L6.38425 18.2708ZM20.8542 29.3562C20.8542 28.0273 19.7769 26.95 18.4479 26.95C17.119 26.95 16.0417 28.0273 16.0417 29.3562L16.0417 51.8146C16.0417 53.1435 17.119 54.2208 18.4479 54.2208C19.7769 54.2208 20.8542 53.1435 20.8542 51.8146L20.8542 29.3562ZM33.6875 29.3562C33.6875 28.0273 32.6102 26.95 31.2813 26.95C29.9523 26.95 28.875 28.0273 28.875 29.3562V51.8146C28.875 53.1435 29.9523 54.2208 31.2813 54.2208C32.6102 54.2208 33.6875 53.1435 33.6875 51.8146V29.3562Z" fill="currentColor"/>
</svg>
