<svg viewBox="0 0 39 48" fill="none" xmlns="http://www.w3.org/2000/svg">
<path fill-rule="evenodd" clip-rule="evenodd" d="M30.4712 0.809664C22.9585 -0.269888 15.3301 -0.269888 7.81739 0.809664C4.0926 1.34491 1.22282 4.36794 0.88191 8.11552L0.559202 11.663C-0.186401 19.8593 -0.1864 28.1064 0.559203 36.3027L0.881911 39.8502C1.22282 43.5978 4.0926 46.6208 7.81739 47.156C15.3301 48.2356 22.9585 48.2356 30.4712 47.156C34.196 46.6208 37.0657 43.5978 37.4066 39.8502L37.7294 36.3027C38.475 28.1064 38.475 19.8593 37.7293 11.663L37.4066 8.11551C37.0657 4.36794 34.196 1.34491 30.4712 0.809664ZM14.0609 16.3579C14.0609 13.5504 16.3368 11.2745 19.1443 11.2745C21.9517 11.2745 24.2276 13.5504 24.2276 16.3579C24.2276 19.1653 21.9517 21.4412 19.1443 21.4412C16.3368 21.4412 14.0609 19.1653 14.0609 16.3579ZM8.97759 32.8787C8.97759 28.6675 12.3914 25.2537 16.6026 25.2537H21.6859C25.8971 25.2537 29.3109 28.6675 29.3109 32.8787C29.3109 34.2824 28.173 35.4204 26.7693 35.4204H11.5193C10.1155 35.4204 8.97759 34.2824 8.97759 32.8787Z" fill="currentColor"/>
</svg>
