<svg viewBox="0 0 141 150" fill="none" xmlns="http://www.w3.org/2000/svg">
<path d="M70.5037 0C51.6627 0 36.389 15.2737 36.389 34.1147C36.389 52.9557 51.6627 68.2294 70.5037 68.2294C89.3448 68.2294 104.618 52.9557 104.618 34.1147C104.618 15.2737 89.3448 0 70.5037 0Z" fill="currentColor"/>
<path d="M34.1147 86.4239C15.2737 86.4239 0 101.698 0 120.539V131.349C0 138.201 4.96604 144.044 11.7288 145.148C50.6544 151.503 90.353 151.503 129.279 145.148C136.041 144.044 141.007 138.201 141.007 131.349V120.539C141.007 101.698 125.734 86.4239 106.893 86.4239H103.792C102.113 86.4239 100.446 86.6893 98.8501 87.2103L90.9763 89.7813C77.6735 94.1251 63.3339 94.1251 50.0311 89.7813L42.1573 87.2103C40.5619 86.6893 38.894 86.4239 37.2157 86.4239H34.1147Z" fill="currentColor"/>
</svg>
