<svg width="63" height="53" viewBox="0 0 63 53" fill="none" xmlns="http://www.w3.org/2000/svg">
<path d="M24.8646 0C18.2199 0 12.8333 5.38657 12.8333 12.0313C12.8333 18.6759 18.2199 24.0625 24.8646 24.0625C31.5093 24.0625 36.8958 18.6759 36.8958 12.0313C36.8958 5.38657 31.5093 0 24.8646 0Z" fill="black"/>
<path d="M12.0312 30.4792C5.38657 30.4792 0 35.8657 0 42.5104V46.3228C0 48.7394 1.75138 50.7999 4.13641 51.1893C17.8643 53.4306 31.8648 53.4306 45.5928 51.1893C47.9778 50.7999 49.7292 48.7394 49.7292 46.3228V42.5104C49.7292 35.8657 44.3426 30.4792 37.6979 30.4792H36.6043C36.0124 30.4792 35.4242 30.5728 34.8615 30.7565L32.0847 31.6632C27.3932 33.1951 22.336 33.1951 17.6445 31.6632L14.8676 30.7565C14.305 30.5728 13.7168 30.4792 13.1249 30.4792H12.0312Z" fill="black"/>
<path d="M52.1354 8.02083C53.4643 8.02083 54.5417 9.09815 54.5417 10.4271V16.0417H60.1562C61.4852 16.0417 62.5625 17.119 62.5625 18.4479C62.5625 19.7769 61.4852 20.8542 60.1562 20.8542H54.5417V26.4688C54.5417 27.7977 53.4643 28.875 52.1354 28.875C50.8065 28.875 49.7292 27.7977 49.7292 26.4688V20.8542H44.1146C42.7856 20.8542 41.7083 19.7769 41.7083 18.4479C41.7083 17.119 42.7856 16.0417 44.1146 16.0417H49.7292V10.4271C49.7292 9.09815 50.8065 8.02083 52.1354 8.02083Z" fill="black"/>
</svg>
