<svg viewBox="0 0 70 70" fill="none" xmlns="http://www.w3.org/2000/svg">
<path d="M14.4584 14.5294C19.7125 9.25727 26.973 6 35 6C51.0163 6 64 18.9837 64 35C64 51.0163 51.0163 64 35 64C18.9837 64 6 51.0163 6 35C6 33.3431 4.65685 32 3 32C1.34315 32 0 33.3431 0 35C0 54.33 15.67 70 35 70C54.33 70 70 54.33 70 35C70 15.67 54.33 0 35 0C25.314 0 16.5423 3.93849 10.2085 10.2941C10.1067 10.3962 10.0138 10.5039 9.92978 10.6161L4.89951 5.58578C4.35077 5.03704 3.53413 4.85527 2.80445 5.11945C2.07476 5.38363 1.56377 6.04608 1.49351 6.81892L0.0792957 22.3753C0.0255573 22.9664 0.237159 23.5508 0.656869 23.9706C1.07658 24.3903 1.66103 24.6019 2.25215 24.5481L17.8085 23.1339C18.5814 23.0637 19.2438 22.5527 19.508 21.823C19.7722 21.0933 19.5904 20.2767 19.0416 19.7279L14.1292 14.8155C14.2441 14.7294 14.3542 14.6341 14.4584 14.5294Z" fill="currentColor"/>
<path d="M38 15C38 13.3431 36.6569 12 35 12C33.3431 12 32 13.3431 32 15V35C32 36.0344 32.5329 36.9958 33.41 37.544L45.41 45.044C46.815 45.9221 48.6659 45.495 49.544 44.09C50.4221 42.685 49.995 40.8341 48.59 39.956L38 33.3373V15Z" fill="currentColor"/>
</svg>
