<svg width="57" height="57" viewBox="0 0 57 57" fill="none" xmlns="http://www.w3.org/2000/svg">
<path d="M55.5391 8.51455C57.4869 6.56673 57.4869 3.40869 55.5391 1.46087C53.5913 -0.486956 50.4332 -0.486956 48.4854 1.46087L28.5 21.4463L8.51461 1.46087C6.56679 -0.486951 3.40875 -0.486953 1.46093 1.46087C-0.486893 3.40869 -0.486892 6.56673 1.46093 8.51455L21.4463 28.5L1.46086 48.4854C-0.486954 50.4333 -0.486956 53.5913 1.46086 55.5391C3.40868 57.4869 6.56673 57.4869 8.51454 55.5391L28.5 35.5537L48.4855 55.5391C50.4333 57.487 53.5913 57.487 55.5391 55.5391C57.487 53.5913 57.487 50.4333 55.5391 48.4854L35.5537 28.5L55.5391 8.51455Z" fill="white"/>
</svg>
